<svg overflow="visible" width="23.5602" height="23.5602" viewBox="0 0 23.5602 23.5602" fill="none" xmlns="http://www.w3.org/2000/svg">
<g id="User Square Rounded Streamline Tabler Line">
<path id="Vector" d="M11.7805 12.6797C12.1349 12.6797 12.4859 12.6098 12.8134 12.4742C13.1409 12.3386 13.4384 12.1397 13.6891 11.8891C13.9397 11.6385 14.1385 11.3409 14.2741 11.0134C14.4098 10.686 14.4796 10.335 14.4796 9.98053C14.4796 9.62608 14.4098 9.2751 14.2741 8.94763C14.1385 8.62016 13.9397 8.32261 13.6891 8.07197C13.4384 7.82134 13.1409 7.62252 12.8134 7.48688C12.4859 7.35123 12.1349 7.28142 11.7805 7.28142C11.0646 7.28142 10.3781 7.56579 9.87193 8.07197C9.36574 8.57815 9.08137 9.26468 9.08137 9.98053C9.08137 10.6964 9.36574 11.3829 9.87193 11.8891C10.3781 12.3953 11.0646 12.6797 11.7805 12.6797Z" stroke="currentColor" stroke-width="1.96728" stroke-linecap="round" stroke-linejoin="round"/>
<path id="Vector_2" d="M11.7805 3.68268C18.2583 3.68268 19.8778 5.30215 19.8778 11.78C19.8778 18.2579 18.2583 19.8774 11.7805 19.8774C5.30259 19.8774 3.68312 18.2579 3.68312 11.78C3.68312 5.30215 5.30259 3.68268 11.7805 3.68268Z" stroke="currentColor" stroke-width="1.96728" stroke-linecap="round" stroke-linejoin="round"/>
<path id="Vector_3" d="M6.38196 19.0226V18.9776C6.38196 18.0232 6.76112 17.1078 7.43603 16.4329C8.11094 15.758 9.02631 15.3788 9.98078 15.3788H13.5796C14.5341 15.3788 15.4494 15.758 16.1244 16.4329C16.7993 17.1078 17.1784 18.0232 17.1784 18.9776V19.0226" stroke="currentColor" stroke-width="1.96728" stroke-linecap="round" stroke-linejoin="round"/>
</g>
</svg>
